<svg id="Слой_15" data-name="Слой 15" xmlns="http://www.w3.org/2000/svg" viewBox="0 0 205 205"><defs><style>.cls-1{fill:#29aae1;}.cls-2,.cls-3{fill:none;stroke:#29aae1;stroke-linecap:round;stroke-miterlimit:10;}.cls-2{stroke-width:22px;}.cls-3{stroke-width:15px;}</style></defs><title>Mammoth-Unit-blue</title><g id="Слой_12_копия_" data-name="Слой 12 (копия)"><path class="cls-1" d="M125,23.26a61.25,61.25,0,0,1,61,61v41a61.24,61.24,0,0,1-61,61H84a61.24,61.24,0,0,1-61-61v-41a61.25,61.25,0,0,1,61-61h41m0-21H84a82.24,82.24,0,0,0-82,82v41a82.24,82.24,0,0,0,82,82h41a82.24,82.24,0,0,0,82-82v-41a82.24,82.24,0,0,0-82-82Z" transform="translate(-2.02 -2.26)"/></g><g id="Слой_14_копия_" data-name="Слой 14 (копия)"><g id="Слой_11_копия_" data-name="Слой 11 (копия)"><g id="Слой_13_копия_" data-name="Слой 13 (копия)"><polyline class="cls-2" points="39.5 174.5 57.18 113.5 118.18 156.5 141.18 80.5 189.18 114.5"/></g><g id="Слой_10_копия_" data-name="Слой 10 (копия)"><polyline class="cls-3" points="192.18 121.5 121.18 73.5 75.18 41.5 56.18 100.5 34 174"/></g></g><g id="Слой_12_копия_2" data-name="Слой 12 копия 2"><path class="cls-1" d="M125,23.26a61.25,61.25,0,0,1,61,61v41a61.24,61.24,0,0,1-61,61H84a61.24,61.24,0,0,1-61-61v-41a61.25,61.25,0,0,1,61-61h41m0-21H84a82.24,82.24,0,0,0-82,82v41a82.24,82.24,0,0,0,82,82h41a82.24,82.24,0,0,0,82-82v-41a82.24,82.24,0,0,0-82-82Z" transform="translate(-2.02 -2.26)"/></g></g></svg>