<svg xmlns="http://www.w3.org/2000/svg" viewBox="0 0 205 205"><defs><style>.cls-1,.cls-2{fill:none;stroke:#333;stroke-linecap:round;stroke-miterlimit:10;}.cls-1{stroke-width:22px;}.cls-2{stroke-width:15px;}.cls-3{fill:#333;}</style></defs><title>Mammoth-Unit-black</title><g id="Слой_11" data-name="Слой 11"><g id="Слой_13" data-name="Слой 13"><polyline class="cls-1" points="39.5 174.5 57.18 113.5 118.18 156.5 141.18 80.5 189.18 114.5"/></g><g id="Слой_10" data-name="Слой 10"><polyline class="cls-2" points="192.18 121.5 121.18 73.5 75.18 41.5 56.18 100.5 34 174"/></g></g><g id="Слой_12" data-name="Слой 12"><path class="cls-3" d="M125,25.26a59.26,59.26,0,0,1,59,59v41a59.24,59.24,0,0,1-59,59H84a59.24,59.24,0,0,1-59-59v-41a59.26,59.26,0,0,1,59-59h41m0-23H84a82.24,82.24,0,0,0-82,82v41a82.24,82.24,0,0,0,82,82h41a82.24,82.24,0,0,0,82-82v-41a82.24,82.24,0,0,0-82-82Z" transform="translate(-2.02 -2.26)"/></g></svg>